<svg width="378" height="168" viewBox="0 0 378 168" fill="none" xmlns="http://www.w3.org/2000/svg">
<path d="M126.928 93.9961V94.0352C126.915 94.0677 126.905 94.1165 126.898 94.1816C126.892 94.2467 126.889 94.3053 126.889 94.3574C126.889 94.5592 126.915 94.7839 126.967 95.0312C127.025 95.2721 127.133 95.5749 127.289 95.9395L131.615 105.695L135.795 96.0176C135.893 95.7767 135.997 95.513 136.107 95.2266C136.218 94.9401 136.273 94.6504 136.273 94.3574C136.273 94.2793 136.267 94.2142 136.254 94.1621C136.241 94.1035 136.228 94.0612 136.215 94.0352V93.9961H138.217V94.0352C138.093 94.1589 137.943 94.3802 137.768 94.6992C137.592 95.0182 137.4 95.4121 137.191 95.8809L131.596 108.303H130.814L125.512 96.3594C125.388 96.0794 125.258 95.8092 125.121 95.5488C124.991 95.2884 124.867 95.054 124.75 94.8457C124.633 94.6309 124.529 94.4518 124.438 94.3086C124.346 94.1654 124.285 94.0742 124.252 94.0352V93.9961H126.928ZM141.301 107.961C141.34 107.824 141.376 107.655 141.408 107.453C141.441 107.251 141.47 107.001 141.496 106.701C141.522 106.402 141.542 106.047 141.555 105.637C141.568 105.22 141.574 104.735 141.574 104.182V97.8242C141.574 97.2708 141.568 96.7891 141.555 96.3789C141.542 95.9622 141.522 95.6042 141.496 95.3047C141.47 94.9987 141.441 94.7448 141.408 94.543C141.376 94.3411 141.34 94.1719 141.301 94.0352V93.9961H143.635V94.0352C143.596 94.1719 143.557 94.3411 143.518 94.543C143.485 94.7448 143.456 94.9987 143.43 95.3047C143.41 95.6042 143.391 95.9622 143.371 96.3789C143.358 96.7891 143.352 97.2708 143.352 97.8242V104.182C143.352 104.735 143.358 105.22 143.371 105.637C143.391 106.047 143.41 106.402 143.43 106.701C143.456 107.001 143.485 107.251 143.518 107.453C143.557 107.655 143.596 107.824 143.635 107.961V108H141.301V107.961ZM148.525 93.9961C149.339 93.9961 150.146 93.9928 150.947 93.9863C151.755 93.9798 152.493 93.9733 153.164 93.9668C153.835 93.9538 154.408 93.9375 154.883 93.918C155.358 93.8984 155.68 93.8724 155.85 93.8398L155.371 95.1387C155.156 95.0801 154.906 95.028 154.619 94.9824C154.372 94.9434 154.069 94.9076 153.711 94.875C153.359 94.8359 152.952 94.8164 152.49 94.8164C152.334 94.8164 152.145 94.8229 151.924 94.8359C151.709 94.8424 151.501 94.8522 151.299 94.8652C151.064 94.8783 150.827 94.8913 150.586 94.9043V100.236C151.257 100.23 151.862 100.21 152.402 100.178C152.943 100.145 153.402 100.113 153.779 100.08C154.222 100.041 154.613 99.9954 154.951 99.9434L154.648 101.359C154.199 101.301 153.74 101.245 153.271 101.193C152.868 101.148 152.428 101.109 151.953 101.076C151.478 101.037 151.022 101.018 150.586 101.018V107.141C151.354 107.141 152.061 107.108 152.705 107.043C153.35 106.978 153.913 106.903 154.395 106.818C154.954 106.727 155.465 106.62 155.928 106.496L155.645 108.078C155.566 108.072 155.449 108.065 155.293 108.059C155.137 108.052 154.961 108.046 154.766 108.039C154.577 108.033 154.375 108.026 154.16 108.02C153.952 108.02 153.753 108.016 153.564 108.01C153.376 108.01 153.206 108.007 153.057 108C152.913 108 152.809 108 152.744 108H148.525V107.961C148.564 107.824 148.6 107.655 148.633 107.453C148.672 107.251 148.704 107.001 148.73 106.701C148.757 106.402 148.776 106.047 148.789 105.637C148.802 105.22 148.809 104.735 148.809 104.182V97.8242C148.809 97.2708 148.802 96.7891 148.789 96.3789C148.776 95.9622 148.757 95.6042 148.73 95.3047C148.704 94.9987 148.672 94.7448 148.633 94.543C148.6 94.3411 148.564 94.1719 148.525 94.0352V93.9961ZM169.471 95.8418L173.377 105.324L177.176 96.0176C177.326 95.6335 177.436 95.3079 177.508 95.041C177.579 94.7741 177.615 94.5462 177.615 94.3574C177.615 94.2988 177.612 94.2402 177.605 94.1816C177.599 94.1165 177.589 94.0677 177.576 94.0352V93.9961H179.51V94.0352C179.38 94.1784 179.236 94.4062 179.08 94.7188C178.93 95.0312 178.755 95.4186 178.553 95.8809L173.338 108.303H172.596L168.797 99.084L165.33 108.303H164.598L159.812 96.3594C159.695 96.0794 159.575 95.8092 159.451 95.5488C159.334 95.2884 159.22 95.054 159.109 94.8457C159.005 94.6374 158.911 94.4616 158.826 94.3184C158.735 94.1751 158.67 94.0807 158.631 94.0352V93.9961H161.336V94.0352C161.323 94.1068 161.316 94.1621 161.316 94.2012C161.316 94.2402 161.316 94.2858 161.316 94.3379C161.316 94.5592 161.339 94.7936 161.385 95.041C161.437 95.2884 161.535 95.5879 161.678 95.9395L165.35 105.217L168.855 95.8809L169.471 95.8418ZM189.926 107.961C189.997 107.857 190.079 107.704 190.17 107.502C190.261 107.294 190.333 107.033 190.385 106.721C190.456 106.265 190.535 105.754 190.619 105.188C190.71 104.615 190.801 104.016 190.893 103.391C190.99 102.766 191.085 102.128 191.176 101.477C191.273 100.819 191.365 100.174 191.449 99.543C191.54 98.9049 191.625 98.293 191.703 97.707C191.788 97.1146 191.863 96.5742 191.928 96.0859C191.993 95.5977 192.045 95.1745 192.084 94.8164C192.13 94.4518 192.162 94.1784 192.182 93.9961H193.422L199.564 105.48L205.658 93.9961H206.586L208.188 105.598C208.233 105.962 208.282 106.275 208.334 106.535C208.386 106.796 208.438 107.02 208.49 107.209C208.542 107.391 208.591 107.544 208.637 107.668C208.689 107.785 208.738 107.883 208.783 107.961V108H206.322V107.961C206.355 107.889 206.384 107.772 206.41 107.609C206.443 107.447 206.459 107.251 206.459 107.023C206.459 106.939 206.456 106.854 206.449 106.77C206.443 106.678 206.433 106.581 206.42 106.477L205.18 97.1211L199.418 107.961L198.744 107.883L192.943 97.0234C192.715 98.5664 192.517 99.9922 192.348 101.301C192.276 101.861 192.204 102.421 192.133 102.98C192.061 103.534 191.996 104.051 191.938 104.533C191.885 105.015 191.843 105.441 191.811 105.812C191.778 106.177 191.762 106.447 191.762 106.623C191.762 106.844 191.768 107.04 191.781 107.209C191.794 107.378 191.807 107.521 191.82 107.639C191.84 107.775 191.859 107.896 191.879 108H189.926V107.961ZM219.377 93.7617C220.464 93.7617 221.467 93.9408 222.385 94.2988C223.309 94.6504 224.107 95.1484 224.777 95.793C225.448 96.431 225.972 97.1992 226.35 98.0977C226.727 98.9961 226.916 99.9889 226.916 101.076C226.916 101.695 226.844 102.303 226.701 102.902C226.558 103.501 226.346 104.068 226.066 104.602C225.793 105.135 225.454 105.63 225.051 106.086C224.647 106.535 224.185 106.926 223.664 107.258C223.15 107.583 222.58 107.837 221.955 108.02C221.33 108.208 220.656 108.303 219.934 108.303C218.846 108.303 217.84 108.13 216.916 107.785C215.998 107.434 215.204 106.939 214.533 106.301C213.863 105.663 213.339 104.898 212.961 104.006C212.583 103.107 212.395 102.111 212.395 101.018C212.395 100.399 212.466 99.7904 212.609 99.1914C212.753 98.5924 212.961 98.0228 213.234 97.4824C213.514 96.9421 213.853 96.4473 214.25 95.998C214.654 95.5423 215.113 95.1484 215.627 94.8164C216.148 94.4844 216.721 94.2272 217.346 94.0449C217.977 93.8561 218.654 93.7617 219.377 93.7617ZM219.934 107.424C220.656 107.424 221.317 107.294 221.916 107.033C222.515 106.773 223.029 106.395 223.459 105.9C223.895 105.406 224.234 104.803 224.475 104.094C224.715 103.378 224.836 102.567 224.836 101.662C224.836 100.66 224.719 99.7318 224.484 98.8789C224.257 98.0195 223.915 97.2773 223.459 96.6523C223.003 96.0208 222.434 95.5293 221.75 95.1777C221.073 94.8197 220.282 94.6406 219.377 94.6406C218.654 94.6406 217.993 94.7708 217.395 95.0312C216.796 95.2852 216.278 95.6562 215.842 96.1445C215.412 96.6328 215.077 97.2318 214.836 97.9414C214.595 98.651 214.475 99.4583 214.475 100.363C214.475 101.359 214.589 102.29 214.816 103.156C215.044 104.016 215.386 104.761 215.842 105.393C216.298 106.024 216.867 106.522 217.551 106.887C218.234 107.245 219.029 107.424 219.934 107.424ZM233.184 104.182C233.184 104.735 233.19 105.22 233.203 105.637C233.223 106.047 233.242 106.402 233.262 106.701C233.288 107.001 233.317 107.251 233.35 107.453C233.389 107.655 233.428 107.824 233.467 107.961V108H231.123V107.961C231.162 107.824 231.198 107.655 231.23 107.453C231.27 107.251 231.302 107.001 231.328 106.701C231.354 106.402 231.374 106.047 231.387 105.637C231.4 105.22 231.406 104.735 231.406 104.182V97.8242C231.406 97.2708 231.4 96.7891 231.387 96.3789C231.374 95.9622 231.354 95.6042 231.328 95.3047C231.302 94.9987 231.27 94.7448 231.23 94.543C231.198 94.3411 231.162 94.1719 231.123 94.0352V93.9961C231.253 94.0091 231.39 94.0221 231.533 94.0352C231.657 94.0482 231.794 94.0579 231.943 94.0645C232.1 94.0645 232.259 94.0645 232.422 94.0645C232.676 94.0645 233.018 94.0352 233.447 93.9766C233.883 93.9115 234.437 93.8789 235.107 93.8789C235.732 93.8789 236.309 93.9635 236.836 94.1328C237.37 94.3021 237.832 94.5495 238.223 94.875C238.613 95.2005 238.916 95.6009 239.131 96.0762C239.352 96.5449 239.463 97.0788 239.463 97.6777C239.463 98.1465 239.401 98.5827 239.277 98.9863C239.16 99.3835 238.991 99.7448 238.77 100.07C238.555 100.396 238.294 100.686 237.988 100.939C237.682 101.187 237.34 101.395 236.963 101.564L240.391 106.379C240.56 106.62 240.716 106.828 240.859 107.004C241.009 107.18 241.149 107.329 241.279 107.453C241.416 107.577 241.546 107.681 241.67 107.766C241.794 107.844 241.921 107.909 242.051 107.961V108H239.229C239.209 107.876 239.144 107.714 239.033 107.512C238.929 107.303 238.805 107.098 238.662 106.896L235.205 102.023C234.886 102.056 234.557 102.072 234.219 102.072C233.88 102.072 233.535 102.043 233.184 101.984V104.182ZM233.184 101.223C233.822 101.34 234.404 101.356 234.932 101.271C235.465 101.187 235.921 101.001 236.299 100.715C236.683 100.428 236.979 100.041 237.188 99.5527C237.402 99.0579 237.51 98.459 237.51 97.7559C237.51 97.2676 237.454 96.8249 237.344 96.4277C237.233 96.0306 237.067 95.6953 236.846 95.4219C236.631 95.1419 236.357 94.9271 236.025 94.7773C235.693 94.6211 235.306 94.543 234.863 94.543C234.583 94.543 234.339 94.556 234.131 94.582C233.923 94.6016 233.747 94.6243 233.604 94.6504C233.434 94.6829 233.294 94.7188 233.184 94.7578V101.223ZM244.939 93.9961C245.753 93.9961 246.561 93.9928 247.361 93.9863C248.169 93.9798 248.908 93.9733 249.578 93.9668C250.249 93.9538 250.822 93.9375 251.297 93.918C251.772 93.8984 252.094 93.8724 252.264 93.8398L251.785 95.1387C251.57 95.0801 251.32 95.028 251.033 94.9824C250.786 94.9434 250.483 94.9076 250.125 94.875C249.773 94.8359 249.367 94.8164 248.904 94.8164C248.748 94.8164 248.559 94.8229 248.338 94.8359C248.123 94.8424 247.915 94.8522 247.713 94.8652C247.479 94.8783 247.241 94.8913 247 94.9043V100.236C247.671 100.23 248.276 100.21 248.816 100.178C249.357 100.145 249.816 100.113 250.193 100.08C250.636 100.041 251.027 99.9954 251.365 99.9434L251.062 101.359C250.613 101.301 250.154 101.245 249.686 101.193C249.282 101.148 248.842 101.109 248.367 101.076C247.892 101.037 247.436 101.018 247 101.018V107.141C247.768 107.141 248.475 107.108 249.119 107.043C249.764 106.978 250.327 106.903 250.809 106.818C251.368 106.727 251.88 106.62 252.342 106.496L252.059 108.078C251.98 108.072 251.863 108.065 251.707 108.059C251.551 108.052 251.375 108.046 251.18 108.039C250.991 108.033 250.789 108.026 250.574 108.02C250.366 108.02 250.167 108.016 249.979 108.01C249.79 108.01 249.62 108.007 249.471 108C249.327 108 249.223 108 249.158 108H244.939V107.961C244.979 107.824 245.014 107.655 245.047 107.453C245.086 107.251 245.118 107.001 245.145 106.701C245.171 106.402 245.19 106.047 245.203 105.637C245.216 105.22 245.223 104.735 245.223 104.182V97.8242C245.223 97.2708 245.216 96.7891 245.203 96.3789C245.19 95.9622 245.171 95.6042 245.145 95.3047C245.118 94.9987 245.086 94.7448 245.047 94.543C245.014 94.3411 244.979 94.1719 244.939 94.0352V93.9961Z" fill="#223D6C"/>
<circle cx="189" cy="40" r="39.5" fill="#F4F8FF" stroke="#223D6C"/>
<path d="M208 43.4641C210.667 41.9245 210.667 38.0755 208 36.5359L182.5 21.8135C179.833 20.2739 176.5 22.1984 176.5 25.2776V54.7224C176.5 57.8016 179.833 59.7261 182.5 58.1865L208 43.4641Z" fill="#223D6C"/>
</svg>
