<svg width="282" height="168" viewBox="0 0 282 168" fill="none" xmlns="http://www.w3.org/2000/svg">
<path d="M126.928 58.9961V59.0352C126.915 59.0677 126.905 59.1165 126.898 59.1816C126.892 59.2467 126.889 59.3053 126.889 59.3574C126.889 59.5592 126.915 59.7839 126.967 60.0312C127.025 60.2721 127.133 60.5749 127.289 60.9395L131.615 70.6953L135.795 61.0176C135.893 60.7767 135.997 60.513 136.107 60.2266C136.218 59.9401 136.273 59.6504 136.273 59.3574C136.273 59.2793 136.267 59.2142 136.254 59.1621C136.241 59.1035 136.228 59.0612 136.215 59.0352V58.9961H138.217V59.0352C138.093 59.1589 137.943 59.3802 137.768 59.6992C137.592 60.0182 137.4 60.4121 137.191 60.8809L131.596 73.3027H130.814L125.512 61.3594C125.388 61.0794 125.258 60.8092 125.121 60.5488C124.991 60.2884 124.867 60.054 124.75 59.8457C124.633 59.6309 124.529 59.4518 124.438 59.3086C124.346 59.1654 124.285 59.0742 124.252 59.0352V58.9961H126.928ZM141.301 72.9609C141.34 72.8242 141.376 72.6549 141.408 72.4531C141.441 72.2513 141.47 72.0007 141.496 71.7012C141.522 71.4017 141.542 71.0469 141.555 70.6367C141.568 70.2201 141.574 69.735 141.574 69.1816V62.8242C141.574 62.2708 141.568 61.7891 141.555 61.3789C141.542 60.9622 141.522 60.6042 141.496 60.3047C141.47 59.9987 141.441 59.7448 141.408 59.543C141.376 59.3411 141.34 59.1719 141.301 59.0352V58.9961H143.635V59.0352C143.596 59.1719 143.557 59.3411 143.518 59.543C143.485 59.7448 143.456 59.9987 143.43 60.3047C143.41 60.6042 143.391 60.9622 143.371 61.3789C143.358 61.7891 143.352 62.2708 143.352 62.8242V69.1816C143.352 69.735 143.358 70.2201 143.371 70.6367C143.391 71.0469 143.41 71.4017 143.43 71.7012C143.456 72.0007 143.485 72.2513 143.518 72.4531C143.557 72.6549 143.596 72.8242 143.635 72.9609V73H141.301V72.9609ZM148.525 58.9961C149.339 58.9961 150.146 58.9928 150.947 58.9863C151.755 58.9798 152.493 58.9733 153.164 58.9668C153.835 58.9538 154.408 58.9375 154.883 58.918C155.358 58.8984 155.68 58.8724 155.85 58.8398L155.371 60.1387C155.156 60.0801 154.906 60.028 154.619 59.9824C154.372 59.9434 154.069 59.9076 153.711 59.875C153.359 59.8359 152.952 59.8164 152.49 59.8164C152.334 59.8164 152.145 59.8229 151.924 59.8359C151.709 59.8424 151.501 59.8522 151.299 59.8652C151.064 59.8783 150.827 59.8913 150.586 59.9043V65.2363C151.257 65.2298 151.862 65.2103 152.402 65.1777C152.943 65.1452 153.402 65.1126 153.779 65.0801C154.222 65.041 154.613 64.9954 154.951 64.9434L154.648 66.3594C154.199 66.3008 153.74 66.2454 153.271 66.1934C152.868 66.1478 152.428 66.1087 151.953 66.0762C151.478 66.0371 151.022 66.0176 150.586 66.0176V72.1406C151.354 72.1406 152.061 72.1081 152.705 72.043C153.35 71.9779 153.913 71.903 154.395 71.8184C154.954 71.7272 155.465 71.6198 155.928 71.4961L155.645 73.0781C155.566 73.0716 155.449 73.0651 155.293 73.0586C155.137 73.0521 154.961 73.0456 154.766 73.0391C154.577 73.0326 154.375 73.026 154.16 73.0195C153.952 73.0195 153.753 73.0163 153.564 73.0098C153.376 73.0098 153.206 73.0065 153.057 73C152.913 73 152.809 73 152.744 73H148.525V72.9609C148.564 72.8242 148.6 72.6549 148.633 72.4531C148.672 72.2513 148.704 72.0007 148.73 71.7012C148.757 71.4017 148.776 71.0469 148.789 70.6367C148.802 70.2201 148.809 69.735 148.809 69.1816V62.8242C148.809 62.2708 148.802 61.7891 148.789 61.3789C148.776 60.9622 148.757 60.6042 148.73 60.3047C148.704 59.9987 148.672 59.7448 148.633 59.543C148.6 59.3411 148.564 59.1719 148.525 59.0352V58.9961ZM169.471 60.8418L173.377 70.3242L177.176 61.0176C177.326 60.6335 177.436 60.3079 177.508 60.041C177.579 59.7741 177.615 59.5462 177.615 59.3574C177.615 59.2988 177.612 59.2402 177.605 59.1816C177.599 59.1165 177.589 59.0677 177.576 59.0352V58.9961H179.51V59.0352C179.38 59.1784 179.236 59.4062 179.08 59.7187C178.93 60.0312 178.755 60.4186 178.553 60.8809L173.338 73.3027H172.596L168.797 64.084L165.33 73.3027H164.598L159.812 61.3594C159.695 61.0794 159.575 60.8092 159.451 60.5488C159.334 60.2884 159.22 60.054 159.109 59.8457C159.005 59.6374 158.911 59.4616 158.826 59.3184C158.735 59.1751 158.67 59.0807 158.631 59.0352V58.9961L161.336 58.9961V59.0352C161.323 59.1068 161.316 59.1621 161.316 59.2012C161.316 59.2402 161.316 59.2858 161.316 59.3379C161.316 59.5592 161.339 59.7936 161.385 60.041C161.437 60.2884 161.535 60.5879 161.678 60.9395L165.35 70.2168L168.855 60.8809L169.471 60.8418ZM189.926 72.9609C189.997 72.8568 190.079 72.7038 190.17 72.502C190.261 72.2936 190.333 72.0332 190.385 71.7207C190.456 71.265 190.535 70.7539 190.619 70.1875C190.71 69.6146 190.801 69.0156 190.893 68.3906C190.99 67.7656 191.085 67.1276 191.176 66.4766C191.273 65.819 191.365 65.1745 191.449 64.543C191.54 63.9049 191.625 63.293 191.703 62.707C191.788 62.1146 191.863 61.5742 191.928 61.0859C191.993 60.5977 192.045 60.1745 192.084 59.8164C192.13 59.4518 192.162 59.1784 192.182 58.9961H193.422L199.564 70.4805L205.658 58.9961H206.586L208.188 70.5977C208.233 70.9622 208.282 71.2747 208.334 71.5352C208.386 71.7956 208.438 72.0202 208.49 72.209C208.542 72.3913 208.591 72.5443 208.637 72.668C208.689 72.7852 208.738 72.8828 208.783 72.9609V73H206.322V72.9609C206.355 72.8893 206.384 72.7721 206.41 72.6094C206.443 72.4466 206.459 72.2513 206.459 72.0234C206.459 71.9388 206.456 71.8542 206.449 71.7695C206.443 71.6784 206.433 71.5807 206.42 71.4766L205.18 62.1211L199.418 72.9609L198.744 72.8828L192.943 62.0234C192.715 63.5664 192.517 64.9922 192.348 66.3008C192.276 66.8607 192.204 67.4206 192.133 67.9805C192.061 68.5339 191.996 69.0514 191.938 69.5332C191.885 70.015 191.843 70.4414 191.811 70.8125C191.778 71.1771 191.762 71.4473 191.762 71.623C191.762 71.8444 191.768 72.0397 191.781 72.209C191.794 72.3783 191.807 72.5215 191.82 72.6387C191.84 72.7754 191.859 72.8958 191.879 73H189.926V72.9609ZM219.377 58.7617C220.464 58.7617 221.467 58.9408 222.385 59.2988C223.309 59.6504 224.107 60.1484 224.777 60.793C225.448 61.431 225.972 62.1992 226.35 63.0977C226.727 63.9961 226.916 64.9889 226.916 66.0762C226.916 66.6947 226.844 67.3034 226.701 67.9023C226.558 68.5013 226.346 69.0677 226.066 69.6016C225.793 70.1354 225.454 70.6302 225.051 71.0859C224.647 71.5352 224.185 71.9258 223.664 72.2578C223.15 72.5833 222.58 72.8372 221.955 73.0195C221.33 73.2083 220.656 73.3027 219.934 73.3027C218.846 73.3027 217.84 73.1302 216.916 72.7852C215.998 72.4336 215.204 71.9388 214.533 71.3008C213.863 70.6628 213.339 69.8978 212.961 69.0059C212.583 68.1074 212.395 67.1113 212.395 66.0176C212.395 65.3991 212.466 64.7904 212.609 64.1914C212.753 63.5924 212.961 63.0228 213.234 62.4824C213.514 61.9421 213.853 61.4473 214.25 60.998C214.654 60.5423 215.113 60.1484 215.627 59.8164C216.148 59.4844 216.721 59.2272 217.346 59.0449C217.977 58.8561 218.654 58.7617 219.377 58.7617ZM219.934 72.4238C220.656 72.4238 221.317 72.2936 221.916 72.0332C222.515 71.7728 223.029 71.3952 223.459 70.9004C223.895 70.4056 224.234 69.8034 224.475 69.0937C224.715 68.3776 224.836 67.5671 224.836 66.6621C224.836 65.6595 224.719 64.7318 224.484 63.8789C224.257 63.0195 223.915 62.2773 223.459 61.6523C223.003 61.0208 222.434 60.5293 221.75 60.1777C221.073 59.8197 220.282 59.6406 219.377 59.6406C218.654 59.6406 217.993 59.7708 217.395 60.0312C216.796 60.2852 216.278 60.6562 215.842 61.1445C215.412 61.6328 215.077 62.2318 214.836 62.9414C214.595 63.651 214.475 64.4583 214.475 65.3633C214.475 66.3594 214.589 67.2904 214.816 68.1562C215.044 69.0156 215.386 69.7611 215.842 70.3926C216.298 71.0241 216.867 71.5221 217.551 71.8867C218.234 72.2448 219.029 72.4238 219.934 72.4238ZM233.184 69.1816C233.184 69.735 233.19 70.2201 233.203 70.6367C233.223 71.0469 233.242 71.4017 233.262 71.7012C233.288 72.0007 233.317 72.2513 233.35 72.4531C233.389 72.6549 233.428 72.8242 233.467 72.9609V73H231.123V72.9609C231.162 72.8242 231.198 72.6549 231.23 72.4531C231.27 72.2513 231.302 72.0007 231.328 71.7012C231.354 71.4017 231.374 71.0469 231.387 70.6367C231.4 70.2201 231.406 69.735 231.406 69.1816V62.8242C231.406 62.2708 231.4 61.7891 231.387 61.3789C231.374 60.9622 231.354 60.6042 231.328 60.3047C231.302 59.9987 231.27 59.7448 231.23 59.543C231.198 59.3411 231.162 59.1719 231.123 59.0352V58.9961C231.253 59.0091 231.39 59.0221 231.533 59.0352C231.657 59.0482 231.794 59.0579 231.943 59.0645C232.1 59.0645 232.259 59.0645 232.422 59.0645C232.676 59.0645 233.018 59.0352 233.447 58.9766C233.883 58.9115 234.437 58.8789 235.107 58.8789C235.732 58.8789 236.309 58.9635 236.836 59.1328C237.37 59.3021 237.832 59.5495 238.223 59.875C238.613 60.2005 238.916 60.6009 239.131 61.0762C239.352 61.5449 239.463 62.0788 239.463 62.6777C239.463 63.1465 239.401 63.5827 239.277 63.9863C239.16 64.3835 238.991 64.7448 238.77 65.0703C238.555 65.3958 238.294 65.6855 237.988 65.9395C237.682 66.1868 237.34 66.3952 236.963 66.5645L240.391 71.3789C240.56 71.6198 240.716 71.8281 240.859 72.0039C241.009 72.1797 241.149 72.3294 241.279 72.4531C241.416 72.5768 241.546 72.681 241.67 72.7656C241.794 72.8437 241.921 72.9089 242.051 72.9609V73H239.229C239.209 72.8763 239.144 72.7135 239.033 72.5117C238.929 72.3034 238.805 72.0983 238.662 71.8965L235.205 67.0234C234.886 67.056 234.557 67.0723 234.219 67.0723C233.88 67.0723 233.535 67.043 233.184 66.9844V69.1816ZM233.184 66.2227C233.822 66.3398 234.404 66.3561 234.932 66.2715C235.465 66.1868 235.921 66.0013 236.299 65.7148C236.683 65.4284 236.979 65.041 237.188 64.5527C237.402 64.0579 237.51 63.459 237.51 62.7559C237.51 62.2676 237.454 61.8249 237.344 61.4277C237.233 61.0306 237.067 60.6953 236.846 60.4219C236.631 60.1419 236.357 59.9271 236.025 59.7773C235.693 59.6211 235.306 59.543 234.863 59.543C234.583 59.543 234.339 59.556 234.131 59.582C233.923 59.6016 233.747 59.6243 233.604 59.6504C233.434 59.6829 233.294 59.7187 233.184 59.7578V66.2227ZM244.939 58.9961C245.753 58.9961 246.561 58.9928 247.361 58.9863C248.169 58.9798 248.908 58.9733 249.578 58.9668C250.249 58.9538 250.822 58.9375 251.297 58.918C251.772 58.8984 252.094 58.8724 252.264 58.8398L251.785 60.1387C251.57 60.0801 251.32 60.028 251.033 59.9824C250.786 59.9434 250.483 59.9076 250.125 59.875C249.773 59.8359 249.367 59.8164 248.904 59.8164C248.748 59.8164 248.559 59.8229 248.338 59.8359C248.123 59.8424 247.915 59.8522 247.713 59.8652C247.479 59.8783 247.241 59.8913 247 59.9043V65.2363C247.671 65.2298 248.276 65.2103 248.816 65.1777C249.357 65.1452 249.816 65.1126 250.193 65.0801C250.636 65.041 251.027 64.9954 251.365 64.9434L251.062 66.3594C250.613 66.3008 250.154 66.2454 249.686 66.1934C249.282 66.1478 248.842 66.1087 248.367 66.0762C247.892 66.0371 247.436 66.0176 247 66.0176V72.1406C247.768 72.1406 248.475 72.1081 249.119 72.043C249.764 71.9779 250.327 71.903 250.809 71.8184C251.368 71.7272 251.88 71.6198 252.342 71.4961L252.059 73.0781C251.98 73.0716 251.863 73.0651 251.707 73.0586C251.551 73.0521 251.375 73.0456 251.18 73.0391C250.991 73.0326 250.789 73.026 250.574 73.0195C250.366 73.0195 250.167 73.0163 249.979 73.0098C249.79 73.0098 249.62 73.0065 249.471 73C249.327 73 249.223 73 249.158 73H244.939V72.9609C244.979 72.8242 245.014 72.6549 245.047 72.4531C245.086 72.2513 245.118 72.0007 245.145 71.7012C245.171 71.4017 245.19 71.0469 245.203 70.6367C245.216 70.2201 245.223 69.735 245.223 69.1816V62.8242C245.223 62.2708 245.216 61.7891 245.203 61.3789C245.19 60.9622 245.171 60.6042 245.145 60.3047C245.118 59.9987 245.086 59.7448 245.047 59.543C245.014 59.3411 244.979 59.1719 244.939 59.0352V58.9961Z" fill="#223D6C"/>
<circle cx="189" cy="128" r="39.5" fill="#F4F8FF" stroke="#223D6C"/>
<path d="M208 131.464C210.667 129.925 210.667 126.075 208 124.536L182.5 109.813C179.833 108.274 176.5 110.198 176.5 113.278V142.722C176.5 145.802 179.833 147.726 182.5 146.187L208 131.464Z" fill="#223D6C"/>
</svg>
