<svg width="153" height="53" viewBox="0 0 153 53" fill="none" xmlns="http://www.w3.org/2000/svg">
<rect x="0.5" y="0.5" width="152" height="52" rx="26" fill="#F4F8FF" stroke="#223D6C"/>
<path d="M22.1484 27.418C22.1484 28.082 22.1562 28.6641 22.1719 29.1641C22.1953 29.6562 22.2188 30.082 22.2422 30.4414C22.2734 30.8008 22.3086 31.1016 22.3477 31.3438C22.3945 31.5859 22.4414 31.7891 22.4883 31.9531V32H19.6758V31.9531C19.7227 31.7891 19.7656 31.5859 19.8047 31.3438C19.8516 31.1016 19.8906 30.8008 19.9219 30.4414C19.9531 30.082 19.9766 29.6562 19.9922 29.1641C20.0078 28.6641 20.0156 28.082 20.0156 27.418V19.7891C20.0156 19.125 20.0078 18.5469 19.9922 18.0547C19.9766 17.5547 19.9531 17.125 19.9219 16.7656C19.8906 16.3984 19.8516 16.0938 19.8047 15.8516C19.7656 15.6094 19.7227 15.4062 19.6758 15.2422V15.1953C19.832 15.2109 19.9961 15.2266 20.168 15.2422C20.3164 15.2578 20.4805 15.2695 20.6602 15.2773C20.8477 15.2773 21.0391 15.2773 21.2344 15.2773C21.5391 15.2773 21.9492 15.2422 22.4648 15.1719C22.9883 15.0938 23.6523 15.0547 24.457 15.0547C25.207 15.0547 25.8984 15.1562 26.5312 15.3594C27.1719 15.5625 27.7266 15.8594 28.1953 16.25C28.6641 16.6406 29.0273 17.1211 29.2852 17.6914C29.5508 18.2539 29.6836 18.8945 29.6836 19.6133C29.6836 20.1758 29.6094 20.6992 29.4609 21.1836C29.3203 21.6602 29.1172 22.0938 28.8516 22.4844C28.5938 22.875 28.2812 23.2227 27.9141 23.5273C27.5469 23.8242 27.1367 24.0742 26.6836 24.2773L30.7969 30.0547C31 30.3438 31.1875 30.5938 31.3594 30.8047C31.5391 31.0156 31.707 31.1953 31.8633 31.3438C32.0273 31.4922 32.1836 31.6172 32.332 31.7188C32.4805 31.8125 32.6328 31.8906 32.7891 31.9531V32H29.4023C29.3789 31.8516 29.3008 31.6562 29.168 31.4141C29.043 31.1641 28.8945 30.918 28.7227 30.6758L24.5742 24.8281C24.1914 24.8672 23.7969 24.8867 23.3906 24.8867C22.9844 24.8867 22.5703 24.8516 22.1484 24.7812V27.418ZM22.1484 23.8672C22.9141 24.0078 23.6133 24.0273 24.2461 23.9258C24.8867 23.8242 25.4336 23.6016 25.8867 23.2578C26.3477 22.9141 26.7031 22.4492 26.9531 21.8633C27.2109 21.2695 27.3398 20.5508 27.3398 19.707C27.3398 19.1211 27.2734 18.5898 27.1406 18.1133C27.0078 17.6367 26.8086 17.2344 26.543 16.9062C26.2852 16.5703 25.957 16.3125 25.5586 16.1328C25.1602 15.9453 24.6953 15.8516 24.1641 15.8516C23.8281 15.8516 23.5352 15.8672 23.2852 15.8984C23.0352 15.9219 22.8242 15.9492 22.6523 15.9805C22.4492 16.0195 22.2812 16.0625 22.1484 16.1094V23.8672ZM33.7148 19.4023C34.4805 19.4023 35.2656 19.4023 36.0703 19.4023C36.875 19.3945 37.6211 19.3867 38.3086 19.3789C38.9961 19.3633 39.5859 19.3477 40.0781 19.332C40.5781 19.3164 40.9062 19.293 41.0625 19.2617L40.6055 20.5273C40.3945 20.4727 40.1562 20.4219 39.8906 20.375C39.6562 20.3359 39.3711 20.3008 39.0352 20.2695C38.707 20.2305 38.3242 20.2109 37.8867 20.2109C37.7305 20.2109 37.5508 20.2188 37.3477 20.2344C37.1445 20.2422 36.9492 20.2539 36.7617 20.2695C36.543 20.2852 36.3203 20.3008 36.0938 20.3164V24.9453C36.7266 24.9375 37.2969 24.9219 37.8047 24.8984C38.3125 24.875 38.7461 24.8438 39.1055 24.8047C39.5273 24.7734 39.8984 24.7305 40.2188 24.6758L39.9375 26.0703C39.5078 26.0156 39.0742 25.9688 38.6367 25.9297C38.2617 25.8906 37.8477 25.8594 37.3945 25.8359C36.9414 25.8047 36.5078 25.7891 36.0938 25.7891V31.1094C36.8203 31.1094 37.4883 31.082 38.0977 31.0273C38.707 30.9648 39.2383 30.8984 39.6914 30.8281C40.2227 30.7422 40.7031 30.6445 41.1328 30.5352L40.8633 32.0703C40.7461 32.0625 40.5547 32.0508 40.2891 32.0352C40.0312 32.0273 39.7578 32.0195 39.4688 32.0117C39.1875 32.0117 38.9219 32.0078 38.6719 32C38.4219 32 38.25 32 38.1562 32H33.7148V31.9531C33.7695 31.7891 33.8164 31.5781 33.8555 31.3203C33.9023 31.0625 33.9375 30.7461 33.9609 30.3711C33.9922 29.9883 34.0156 29.5352 34.0312 29.0117C34.0469 28.4883 34.0547 27.875 34.0547 27.1719V24.2188C34.0547 23.5156 34.0469 22.9062 34.0312 22.3906C34.0156 21.8672 33.9922 21.418 33.9609 21.043C33.9375 20.6602 33.9023 20.3398 33.8555 20.082C33.8164 19.8242 33.7695 19.6133 33.7148 19.4492V19.4023ZM51.3984 28.0391C51.1875 28.0391 50.9219 28.0391 50.6016 28.0391C50.2891 28.0391 49.9453 28.0391 49.5703 28.0391C49.1953 28.0391 48.8086 28.0391 48.4102 28.0391C48.0117 28.0391 47.6328 28.043 47.2734 28.0508C46.9141 28.0508 46.5859 28.0547 46.2891 28.0625C45.9922 28.0625 45.7617 28.0625 45.5977 28.0625L45.1641 28.9766C44.9766 29.3516 44.8164 29.6797 44.6836 29.9609C44.5508 30.2344 44.4414 30.4766 44.3555 30.6875C44.2695 30.8984 44.207 31.082 44.168 31.2383C44.1289 31.3867 44.1094 31.5273 44.1094 31.6602C44.1094 31.7461 44.1133 31.8125 44.1211 31.8594C44.1289 31.8984 44.1406 31.9297 44.1562 31.9531V32H42.0938V31.9531C42.1484 31.8984 42.2344 31.7812 42.3516 31.6016C42.4688 31.4141 42.6016 31.1875 42.75 30.9219C42.9062 30.6562 43.0703 30.3555 43.2422 30.0195C43.4219 29.6836 43.5977 29.3359 43.7695 28.9766L48.5508 19.1094H49.4297L54.1172 28.9766C54.2969 29.3516 54.4766 29.7109 54.6562 30.0547C54.8438 30.3984 55.0156 30.707 55.1719 30.9805C55.3281 31.2461 55.4648 31.4688 55.582 31.6484C55.6992 31.8203 55.7773 31.9219 55.8164 31.9531V32H52.8164C52.832 31.9375 52.8398 31.8828 52.8398 31.8359C52.8398 31.7812 52.8398 31.7227 52.8398 31.6602C52.8398 31.4883 52.8008 31.2812 52.7227 31.0391C52.6523 30.7969 52.5625 30.5508 52.4531 30.3008C52.3516 30.043 52.2422 29.7969 52.125 29.5625C52.0156 29.3281 51.9258 29.1328 51.8555 28.9766L51.3984 28.0391ZM46.0547 27.125H46.7695C47.0977 27.125 47.4453 27.125 47.8125 27.125C48.1875 27.1172 48.5625 27.1133 48.9375 27.1133C49.3125 27.1133 49.6758 27.1133 50.0273 27.1133C50.3789 27.1055 50.6953 27.1016 50.9766 27.1016L48.5508 21.9219L46.0547 27.125ZM59.6719 20.2344C59.6641 20.875 59.6562 21.4961 59.6484 22.0977C59.6484 22.3555 59.6445 22.6211 59.6367 22.8945C59.6367 23.1602 59.6328 23.4258 59.625 23.6914C59.625 23.957 59.625 24.2109 59.625 24.4531C59.625 24.6875 59.625 24.8984 59.625 25.0859C59.625 25.4766 59.625 25.9492 59.625 26.5039C59.6328 27.0508 59.6406 27.6133 59.6484 28.1914C59.6562 28.7695 59.668 29.3281 59.6836 29.8672C59.6992 30.3984 59.7188 30.8438 59.7422 31.2031C59.8203 31.2188 59.9219 31.2344 60.0469 31.25C60.1719 31.2578 60.3008 31.2695 60.4336 31.2852C60.5742 31.293 60.7109 31.3008 60.8438 31.3086C60.9766 31.3086 61.0898 31.3086 61.1836 31.3086C61.6133 31.3086 62.0469 31.2812 62.4844 31.2266C62.9297 31.1719 63.3555 31.0703 63.7617 30.9219C64.1758 30.7656 64.5625 30.5547 64.9219 30.2891C65.2812 30.0234 65.5938 29.6836 65.8594 29.2695C66.1328 28.8477 66.3438 28.3438 66.4922 27.7578C66.6484 27.1641 66.7266 26.4648 66.7266 25.6602C66.7266 23.8867 66.3008 22.5195 65.4492 21.5586C64.6055 20.5977 63.3438 20.1172 61.6641 20.1172C61.5 20.1172 61.3242 20.1211 61.1367 20.1289C60.957 20.1367 60.7773 20.1484 60.5977 20.1641C60.418 20.1719 60.2461 20.1836 60.082 20.1992C59.9258 20.2148 59.7891 20.2266 59.6719 20.2344ZM57.2461 19.3789C57.4336 19.3867 57.6094 19.3906 57.7734 19.3906C57.9141 19.3984 58.0508 19.4023 58.1836 19.4023C58.3164 19.4023 58.4141 19.4023 58.4766 19.4023C58.5859 19.4023 58.7812 19.3984 59.0625 19.3906C59.3438 19.3828 59.6602 19.375 60.0117 19.3672C60.3711 19.3516 60.7461 19.3398 61.1367 19.332C61.5352 19.3164 61.9023 19.3086 62.2383 19.3086C63.1523 19.3086 64.0234 19.4141 64.8516 19.625C65.6797 19.8359 66.4062 20.1836 67.0312 20.668C67.6641 21.1445 68.1641 21.7734 68.5312 22.5547C68.8984 23.3281 69.082 24.2852 69.082 25.4258C69.082 26.6523 68.8711 27.6914 68.4492 28.543C68.0273 29.3945 67.457 30.0898 66.7383 30.6289C66.0195 31.1602 65.1836 31.5469 64.2305 31.7891C63.2852 32.0234 62.2852 32.1406 61.2305 32.1406C60.9805 32.1406 60.668 32.1328 60.293 32.1172C59.918 32.1016 59.5352 32.0859 59.1445 32.0703C58.7539 32.0547 58.3828 32.0391 58.0312 32.0234C57.6875 32.0078 57.4258 32 57.2461 32V31.9531C57.3008 31.7891 57.3477 31.5781 57.3867 31.3203C57.4336 31.0625 57.4688 30.7461 57.4922 30.3711C57.5234 29.9883 57.5469 29.5352 57.5625 29.0117C57.5781 28.4883 57.5859 27.875 57.5859 27.1719V24.2188C57.5859 23.5156 57.5781 22.9023 57.5625 22.3789C57.5469 21.8555 57.5234 21.4023 57.4922 21.0195C57.4688 20.6367 57.4336 20.3164 57.3867 20.0586C57.3477 19.8008 57.3008 19.5898 57.2461 19.4258V19.3789ZM78.0703 31.9531C78.1562 31.8281 78.2539 31.6445 78.3633 31.4023C78.4727 31.1523 78.5586 30.8398 78.6211 30.4648C78.707 29.918 78.8008 29.3047 78.9023 28.625C79.0117 27.9375 79.1211 27.2188 79.2305 26.4688C79.3477 25.7188 79.4609 24.9531 79.5703 24.1719C79.6875 23.3828 79.7969 22.6094 79.8984 21.8516C80.0078 21.0859 80.1094 20.3516 80.2031 19.6484C80.3047 18.9375 80.3945 18.2891 80.4727 17.7031C80.5508 17.1172 80.6133 16.6094 80.6602 16.1797C80.7148 15.7422 80.7539 15.4141 80.7773 15.1953H82.2656L89.6367 28.9766L96.9492 15.1953H98.0625L99.9844 29.1172C100.039 29.5547 100.098 29.9297 100.16 30.2422C100.223 30.5547 100.285 30.8242 100.348 31.0508C100.41 31.2695 100.469 31.4531 100.523 31.6016C100.586 31.7422 100.645 31.8594 100.699 31.9531V32H97.7461V31.9531C97.7852 31.8672 97.8203 31.7266 97.8516 31.5312C97.8906 31.3359 97.9102 31.1016 97.9102 30.8281C97.9102 30.7266 97.9062 30.625 97.8984 30.5234C97.8906 30.4141 97.8789 30.2969 97.8633 30.1719L96.375 18.9453L89.4609 31.9531L88.6523 31.8594L81.6914 18.8281C81.418 20.6797 81.1797 22.3906 80.9766 23.9609C80.8906 24.6328 80.8047 25.3047 80.7188 25.9766C80.6328 26.6406 80.5547 27.2617 80.4844 27.8398C80.4219 28.418 80.3711 28.9297 80.332 29.375C80.293 29.8125 80.2734 30.1367 80.2734 30.3477C80.2734 30.6133 80.2812 30.8477 80.2969 31.0508C80.3125 31.2539 80.3281 31.4258 80.3438 31.5664C80.3672 31.7305 80.3906 31.875 80.4141 32H78.0703V31.9531ZM102.539 25.6602C102.539 24.7383 102.711 23.8828 103.055 23.0938C103.406 22.3047 103.883 21.6211 104.484 21.043C105.086 20.457 105.797 20 106.617 19.6719C107.438 19.3438 108.316 19.1797 109.254 19.1797C110.176 19.1797 111.043 19.3359 111.855 19.6484C112.676 19.9531 113.387 20.3906 113.988 20.9609C114.598 21.5312 115.078 22.2227 115.43 23.0352C115.781 23.8477 115.957 24.7578 115.957 25.7656C115.957 26.6016 115.809 27.4102 115.512 28.1914C115.215 28.9648 114.781 29.6523 114.211 30.2539C113.641 30.8477 112.938 31.3242 112.102 31.6836C111.266 32.0352 110.309 32.2109 109.23 32.2109C108.316 32.2109 107.453 32.0586 106.641 31.7539C105.828 31.4492 105.117 31.0156 104.508 30.4531C103.898 29.8828 103.418 29.1953 103.066 28.3906C102.715 27.5781 102.539 26.668 102.539 25.6602ZM109.523 31.3789C110.117 31.3789 110.664 31.2617 111.164 31.0273C111.664 30.793 112.094 30.457 112.453 30.0195C112.82 29.582 113.102 29.0508 113.297 28.4258C113.5 27.793 113.602 27.082 113.602 26.293C113.602 25.3945 113.504 24.5625 113.309 23.7969C113.121 23.0312 112.832 22.3711 112.441 21.8164C112.059 21.2539 111.578 20.8164 111 20.5039C110.422 20.1836 109.746 20.0234 108.973 20.0234C108.379 20.0234 107.832 20.1367 107.332 20.3633C106.832 20.5898 106.398 20.918 106.031 21.3477C105.672 21.7773 105.391 22.3047 105.188 22.9297C104.984 23.5547 104.883 24.2656 104.883 25.0625C104.883 25.9531 104.98 26.7852 105.176 27.5586C105.379 28.3242 105.672 28.9922 106.055 29.5625C106.445 30.125 106.93 30.5703 107.508 30.8984C108.086 31.2188 108.758 31.3789 109.523 31.3789ZM120.727 25.8828C120.883 25.9062 121.039 25.9258 121.195 25.9414C121.359 25.9492 121.516 25.9531 121.664 25.9531C122.641 25.9531 123.379 25.6914 123.879 25.168C124.387 24.6445 124.641 23.8594 124.641 22.8125C124.641 21.9531 124.438 21.2734 124.031 20.7734C123.633 20.2734 123.043 20.0234 122.262 20.0234C122.012 20.0234 121.789 20.0352 121.594 20.0586C121.406 20.0742 121.246 20.0938 121.113 20.1172C120.965 20.1484 120.836 20.1797 120.727 20.2109V25.8828ZM122.52 26.6445C122.363 26.668 122.207 26.6836 122.051 26.6914C121.902 26.6914 121.75 26.6914 121.594 26.6914C121.469 26.6914 121.332 26.6875 121.184 26.6797C121.035 26.6719 120.883 26.6602 120.727 26.6445V27.2188C120.727 27.9141 120.734 28.5234 120.75 29.0469C120.766 29.5625 120.785 30.0078 120.809 30.3828C120.84 30.7578 120.875 31.0742 120.914 31.332C120.953 31.582 121 31.7891 121.055 31.9531V32H118.348V31.9531C118.402 31.7891 118.449 31.5781 118.488 31.3203C118.535 31.0625 118.57 30.7461 118.594 30.3711C118.625 29.9883 118.648 29.5352 118.664 29.0117C118.68 28.4883 118.688 27.875 118.688 27.1719V24.2188C118.688 23.5156 118.68 22.9062 118.664 22.3906C118.648 21.8672 118.625 21.418 118.594 21.043C118.57 20.6602 118.535 20.3398 118.488 20.082C118.449 19.8242 118.402 19.6133 118.348 19.4492V19.4023C118.473 19.4102 118.605 19.418 118.746 19.4258C118.863 19.4336 118.992 19.4414 119.133 19.4492C119.281 19.4492 119.43 19.4492 119.578 19.4492C119.828 19.4492 120.199 19.4258 120.691 19.3789C121.184 19.332 121.762 19.3086 122.426 19.3086C123.098 19.3086 123.707 19.3906 124.254 19.5547C124.809 19.7188 125.281 19.9531 125.672 20.2578C126.07 20.5625 126.375 20.9336 126.586 21.3711C126.805 21.8086 126.914 22.2969 126.914 22.8359C126.914 23.2578 126.855 23.6445 126.738 23.9961C126.621 24.3398 126.457 24.6523 126.246 24.9336C126.035 25.207 125.785 25.4492 125.496 25.6602C125.207 25.8711 124.887 26.0547 124.535 26.2109L126.984 29.668C127.195 29.9492 127.406 30.2188 127.617 30.4766C127.836 30.7344 128.043 30.9648 128.238 31.168C128.434 31.3711 128.617 31.543 128.789 31.6836C128.961 31.8164 129.105 31.9062 129.223 31.9531V32H126.152C126.152 31.9297 126.102 31.8086 126 31.6367C125.906 31.457 125.793 31.2734 125.66 31.0859C125.535 30.8906 125.406 30.7031 125.273 30.5234C125.148 30.3438 125.055 30.2109 124.992 30.125L122.52 26.6445ZM130.324 19.4023C131.09 19.4023 131.875 19.4023 132.68 19.4023C133.484 19.3945 134.23 19.3867 134.918 19.3789C135.605 19.3633 136.195 19.3477 136.688 19.332C137.188 19.3164 137.516 19.293 137.672 19.2617L137.215 20.5273C137.004 20.4727 136.766 20.4219 136.5 20.375C136.266 20.3359 135.98 20.3008 135.645 20.2695C135.316 20.2305 134.934 20.2109 134.496 20.2109C134.34 20.2109 134.16 20.2188 133.957 20.2344C133.754 20.2422 133.559 20.2539 133.371 20.2695C133.152 20.2852 132.93 20.3008 132.703 20.3164V24.9453C133.336 24.9375 133.906 24.9219 134.414 24.8984C134.922 24.875 135.355 24.8438 135.715 24.8047C136.137 24.7734 136.508 24.7305 136.828 24.6758L136.547 26.0703C136.117 26.0156 135.684 25.9688 135.246 25.9297C134.871 25.8906 134.457 25.8594 134.004 25.8359C133.551 25.8047 133.117 25.7891 132.703 25.7891V31.1094C133.43 31.1094 134.098 31.082 134.707 31.0273C135.316 30.9648 135.848 30.8984 136.301 30.8281C136.832 30.7422 137.312 30.6445 137.742 30.5352L137.473 32.0703C137.355 32.0625 137.164 32.0508 136.898 32.0352C136.641 32.0273 136.367 32.0195 136.078 32.0117C135.797 32.0117 135.531 32.0078 135.281 32C135.031 32 134.859 32 134.766 32H130.324V31.9531C130.379 31.7891 130.426 31.5781 130.465 31.3203C130.512 31.0625 130.547 30.7461 130.57 30.3711C130.602 29.9883 130.625 29.5352 130.641 29.0117C130.656 28.4883 130.664 27.875 130.664 27.1719V24.2188C130.664 23.5156 130.656 22.9062 130.641 22.3906C130.625 21.8672 130.602 21.418 130.57 21.043C130.547 20.6602 130.512 20.3398 130.465 20.082C130.426 19.8242 130.379 19.6133 130.324 19.4492V19.4023Z" fill="#223D6C"/>
</svg>
